<svg width="166" height="166" viewBox="0 0 166 166" fill="none" xmlns="http://www.w3.org/2000/svg">
<circle cx="83.0001" cy="83" r="21.3429" fill="white"/>
<mask id="path-2-inside-1_13_466" fill="white">
<path d="M55.0172 83C55.0172 98.4545 67.5455 110.983 83.0001 110.983C98.4546 110.983 110.983 98.4545 110.983 83C110.983 67.5455 98.4546 55.0171 83.0001 55.0171C67.5455 55.0171 55.0172 67.5455 55.0172 83ZM104.228 83C104.228 94.7239 94.7239 104.228 83.0001 104.228C71.2762 104.228 61.7721 94.7239 61.7721 83C61.7721 71.2761 71.2762 61.772 83.0001 61.772C94.7239 61.772 104.228 71.2761 104.228 83Z"/>
</mask>
<path d="M55.0172 83C55.0172 98.4545 67.5455 110.983 83.0001 110.983C98.4546 110.983 110.983 98.4545 110.983 83C110.983 67.5455 98.4546 55.0171 83.0001 55.0171C67.5455 55.0171 55.0172 67.5455 55.0172 83ZM104.228 83C104.228 94.7239 94.7239 104.228 83.0001 104.228C71.2762 104.228 61.7721 94.7239 61.7721 83C61.7721 71.2761 71.2762 61.772 83.0001 61.772C94.7239 61.772 104.228 71.2761 104.228 83Z" fill="white" stroke="black" stroke-width="10" mask="url(#path-2-inside-1_13_466)"/>
<mask id="path-3-inside-2_13_466" fill="white">
<path d="M65.9256 83C65.9256 92.4299 73.5701 100.074 82.9999 100.074C92.4298 100.074 100.074 92.4299 100.074 83C100.074 73.5701 92.4298 65.9257 82.9999 65.9257C73.5701 65.9257 65.9256 73.5701 65.9256 83ZM95.9526 83C95.9526 90.1536 90.1535 95.9527 82.9999 95.9527C75.8464 95.9527 70.0473 90.1536 70.0473 83C70.0473 75.8464 75.8464 70.0473 82.9999 70.0473C90.1535 70.0473 95.9526 75.8464 95.9526 83Z"/>
</mask>
<path d="M65.9256 83C65.9256 92.4299 73.5701 100.074 82.9999 100.074C92.4298 100.074 100.074 92.4299 100.074 83C100.074 73.5701 92.4298 65.9257 82.9999 65.9257C73.5701 65.9257 65.9256 73.5701 65.9256 83ZM95.9526 83C95.9526 90.1536 90.1535 95.9527 82.9999 95.9527C75.8464 95.9527 70.0473 90.1536 70.0473 83C70.0473 75.8464 75.8464 70.0473 82.9999 70.0473C90.1535 70.0473 95.9526 75.8464 95.9526 83Z" fill="#CF141F" stroke="black" stroke-width="10" mask="url(#path-3-inside-2_13_466)"/>
<mask id="path-4-inside-3_13_466" fill="white">
<path d="M166 83C166 60.9871 157.255 39.8757 141.69 24.3102C126.124 8.74465 105.013 3.21795e-05 83 3.05176e-05C60.987 2.88556e-05 39.8757 8.74464 24.3101 24.3102C8.74462 39.8757 3.32387e-06 60.9871 0 83L54.9964 83C54.9964 75.573 57.9468 68.4502 63.1985 63.1985C68.4502 57.9468 75.573 54.9964 83 54.9964C90.427 54.9964 97.5499 57.9468 102.802 63.1985C108.053 68.4502 111.004 75.573 111.004 83H166Z"/>
</mask>
<path d="M166 83C166 60.9871 157.255 39.8757 141.69 24.3102C126.124 8.74465 105.013 3.21795e-05 83 3.05176e-05C60.987 2.88556e-05 39.8757 8.74464 24.3101 24.3102C8.74462 39.8757 3.32387e-06 60.9871 0 83L54.9964 83C54.9964 75.573 57.9468 68.4502 63.1985 63.1985C68.4502 57.9468 75.573 54.9964 83 54.9964C90.427 54.9964 97.5499 57.9468 102.802 63.1985C108.053 68.4502 111.004 75.573 111.004 83H166Z" fill="#CF141F" stroke="black" stroke-width="10" mask="url(#path-4-inside-3_13_466)"/>
<mask id="path-5-inside-4_13_466" fill="white">
<path d="M-8.0027e-06 83C-9.92713e-06 105.013 8.74461 126.124 24.3101 141.69C39.8756 157.255 60.987 166 83 166C105.013 166 126.124 157.255 141.69 141.69C157.255 126.124 166 105.013 166 83L111.004 83C111.004 90.427 108.053 97.5498 102.802 102.802C97.5498 108.053 90.427 111.004 83 111.004C75.573 111.004 68.4501 108.053 63.1984 102.802C57.9468 97.5498 54.9964 90.427 54.9964 83L-8.0027e-06 83Z"/>
</mask>
<path d="M-8.0027e-06 83C-9.92713e-06 105.013 8.74461 126.124 24.3101 141.69C39.8756 157.255 60.987 166 83 166C105.013 166 126.124 157.255 141.69 141.69C157.255 126.124 166 105.013 166 83L111.004 83C111.004 90.427 108.053 97.5498 102.802 102.802C97.5498 108.053 90.427 111.004 83 111.004C75.573 111.004 68.4501 108.053 63.1984 102.802C57.9468 97.5498 54.9964 90.427 54.9964 83L-8.0027e-06 83Z" fill="white" stroke="black" stroke-width="10" mask="url(#path-5-inside-4_13_466)"/>
</svg>
